<svg width="95" height="51" viewBox="0 0 95 51" fill="none" xmlns="http://www.w3.org/2000/svg">
<path d="M0 0.319946H94.1177V27.5981L89.459 34.8771L94.1177 41.3554V50.3199H0V23.0123L2.91161 19.6639L0 16.4612V0.319946Z" fill="#016FD0"/>
<path d="M18.2703 42.3748V27.5984H33.9157L35.5944 29.7867L37.3286 27.5984H94.1177V41.3559C94.1177 41.3559 92.6326 42.3601 90.9149 42.3749H59.4696L57.577 40.0455V42.3749H51.3753V38.3987C51.3753 38.3987 50.5281 38.9537 48.6966 38.9537H46.5857V42.3749H37.1958L35.5195 40.1397L33.8176 42.3749L18.2703 42.3748ZM0 16.4615L3.5281 8.23621H9.62965L11.6318 12.8437V8.23621H19.2166L20.4085 11.5664L21.564 8.23621H55.6117V9.91039C55.6117 9.91039 57.4016 8.23621 60.3431 8.23621L71.3903 8.27489L73.3579 12.822V8.23621H79.7052L81.4521 10.8481V8.23621H87.8577V23.0127H81.4521L79.778 20.3921V23.0126H70.4524L69.5145 20.6833H67.0076L66.085 23.0126H59.7607C57.2296 23.0126 55.6117 21.3726 55.6117 21.3726V23.0126H46.0761L44.1836 20.6834V23.0127H8.72576L7.78856 20.6834H5.28937L4.35906 23.0126H0V16.4615Z" fill="white"/>
<path d="M4.77817 10.0582L0.0195312 21.1222H3.11767L3.99571 18.9067H9.10015L9.97356 21.1222H13.14L8.38572 10.0582H4.77817ZM6.53878 12.633L8.09464 16.5047H4.97838L6.53878 12.633ZM13.4675 21.1204V10.0563L17.8701 10.0726L20.4308 17.2061L22.9302 10.0563H27.2976V21.1204H24.5316V12.9679L21.5995 21.1204H19.1737L16.2335 12.9679V21.1204H13.4675ZM29.1901 21.1204V10.0563H38.2161V12.5311H31.9853V14.4236H38.0705V16.753H31.9853V18.7183H38.2161V21.1204H29.1901ZM39.8176 10.0582V21.1222H42.5836V17.1915H43.7482L47.0646 21.1222H50.4449L46.8053 17.046C48.299 16.9199 49.8398 15.6379 49.8398 13.6476C49.8398 11.3194 48.0124 10.0582 45.9729 10.0582H39.8176ZM42.5836 12.533H45.7453C46.5039 12.533 47.0556 13.1263 47.0556 13.6976C47.0556 14.4326 46.3407 14.8623 45.7863 14.8623H42.5836V12.533ZM53.7932 21.1204H50.969V10.0563H53.7932V21.1204ZM60.4899 21.1204H59.8804C56.9307 21.1204 55.1398 18.7965 55.1398 15.6338C55.1398 12.3929 56.9106 10.0563 60.6354 10.0563H63.6926V12.6767H60.5237C59.0117 12.6767 57.9423 13.8568 57.9423 15.6611C57.9423 17.8038 59.1651 18.7037 60.9266 18.7037H61.6545L60.4899 21.1204ZM66.5088 10.0582L61.7501 21.1222H64.8483L65.7262 18.9067H70.8306L71.7042 21.1222H74.8705L70.1164 10.0582H66.5088ZM68.2694 12.633L69.8252 16.5047H66.7089L68.2694 12.633ZM75.1935 21.1204V10.0563H78.7102L83.2004 17.0077V10.0563H85.9665V21.1204H82.5635L77.9595 13.987V21.1204H75.1935ZM20.1642 40.4825V29.4184H29.1901V31.8933H22.9593V33.7859H29.0445V36.1151H22.9593V38.0805H29.1901V40.4825H20.1642ZM64.3915 40.4825V29.4184H73.4174V31.8933H67.1866V33.7859H73.2428V36.1151H67.1865V38.0805H73.4173V40.4825H64.3915ZM29.5405 40.4825L33.9352 35.0188L29.4358 29.4184H32.9207L35.6003 32.8805L38.289 29.4184H41.6374L37.1972 34.9505L41.5999 40.4825H38.1157L35.5139 37.0751L32.9753 40.4825H29.5405ZM41.9285 29.4203V40.4844H44.7673V36.9905H47.6789C50.1425 36.9905 52.0099 35.6835 52.0099 33.1417C52.0099 31.0361 50.5453 29.4203 48.0382 29.4203H41.9285ZM44.7673 31.9225H47.8335C48.6294 31.9225 49.1983 32.4103 49.1983 33.1963C49.1983 33.9347 48.6323 34.4701 47.8244 34.4701H44.7673V31.9225ZM53.2109 29.4184V40.4825H55.9769V36.5518H57.1416L60.4581 40.4825H63.8382L60.1988 36.4063C61.6924 36.2803 63.2331 34.9982 63.2331 33.0078C63.2331 30.6796 61.4057 29.4184 59.3662 29.4184H53.2109ZM55.9769 31.8933H59.1387C59.8972 31.8933 60.449 32.4866 60.449 33.0579C60.449 33.7929 59.7341 34.2225 59.1797 34.2225H55.9769V31.8933ZM74.6985 40.4825V38.0805H80.2342C81.0533 38.0805 81.408 37.6378 81.408 37.1524C81.408 36.6872 81.0544 36.217 80.2342 36.217H77.7327C75.5583 36.217 74.3473 34.8923 74.3473 32.9033C74.3473 31.1292 75.4563 29.4184 78.6875 29.4184H84.0739L82.9093 31.9079H78.2507C77.3602 31.9079 77.0861 32.3751 77.0861 32.8214C77.0861 33.28 77.4248 33.7859 78.1051 33.7859H80.7255C83.1494 33.7859 84.2013 35.1608 84.2013 36.9613C84.2013 38.8971 83.0292 40.4825 80.5936 40.4825H74.6985ZM84.8505 40.4825V38.0805H90.3861C91.2053 38.0805 91.5599 37.6378 91.5599 37.1524C91.5599 36.6872 91.2064 36.217 90.3861 36.217H87.8847C85.7102 36.217 84.4993 34.8923 84.4993 32.9033C84.4993 31.1292 85.6082 29.4184 88.8394 29.4184H94.2259L93.0612 31.9079H88.4027C87.5122 31.9079 87.238 32.3751 87.238 32.8214C87.238 33.28 87.5767 33.7859 88.2571 33.7859H90.8775C93.3014 33.7859 94.3532 35.1608 94.3532 36.9613C94.3532 38.8971 93.1812 40.4825 90.7456 40.4825H84.8505Z" fill="#016FD0"/>
</svg>
