<svg width="31" height="33" viewBox="0 0 31 33" fill="none" xmlns="http://www.w3.org/2000/svg">
<path d="M22.4102 32.9999C23.8111 32.9999 24.9468 31.8159 24.9468 30.3554C24.9468 28.8949 23.8111 27.7109 22.4102 27.7109C21.0093 27.7109 19.8737 28.8949 19.8737 30.3554C19.8737 31.8159 21.0093 32.9999 22.4102 32.9999Z" fill="white"/>
<path d="M10.8126 32.9999C12.2135 32.9999 13.3492 31.8159 13.3492 30.3554C13.3492 28.8949 12.2135 27.7109 10.8126 27.7109C9.41167 27.7109 8.276 28.8949 8.276 30.3554C8.276 31.8159 9.41167 32.9999 10.8126 32.9999Z" fill="white"/>
<path d="M5.87023 4.95407L5.58034 8.65631C5.52236 9.36654 6.05867 9.95587 6.73992 9.95587H28.9313C29.5401 9.95587 30.0474 9.47231 30.0909 8.83765C30.2794 6.16296 28.3226 3.98695 25.757 3.98695H7.94298C7.79803 3.32206 7.50814 2.68739 7.0588 2.1585C6.33406 1.35761 5.31943 0.88916 4.27581 0.88916H1.75373C1.15945 0.88916 0.666626 1.40294 0.666626 2.0225C0.666626 2.64206 1.15945 3.15584 1.75373 3.15584H4.27581C4.72515 3.15584 5.1455 3.35228 5.44989 3.68473C5.75428 4.03229 5.89922 4.48562 5.87023 4.95407Z" fill="white"/>
<path d="M28.5858 12.2227H6.35087C5.74209 12.2227 5.24927 12.7062 5.19129 13.3258L4.66948 19.8991C4.46655 22.4832 6.40885 24.6894 8.88745 24.6894H25.0056C27.1798 24.6894 29.0931 22.8307 29.2525 20.564L29.7309 13.5071C29.7888 12.812 29.267 12.2227 28.5858 12.2227Z" fill="white"/>
</svg>
