<svg width="100" height="100" viewBox="0 0 100 100" fill="none" xmlns="http://www.w3.org/2000/svg">
<path d="M40.0868 47.4907L30.8783 56.7381C30.1857 57.4317 30.1857 58.5362 30.8783 59.2298C31.2118 59.5637 31.6735 59.7436 32.1095 59.7436C32.5712 59.7436 33.0073 59.5637 33.3664 59.2298L42.5748 49.9823C43.2674 49.2888 43.2674 48.1842 42.5748 47.4907C41.8823 46.8228 40.7793 46.8228 40.0868 47.4907Z" fill="white"/>
<path d="M74.2485 57.4322L54.8056 37.807L57.5758 35.0071C60.0639 36.497 63.2445 36.7025 64.7322 36.7025C65.0913 36.7025 65.3478 36.6768 65.4761 36.6768C65.9634 36.6511 66.4251 36.3942 66.7586 36.0089L74.3511 26.2991C74.9667 25.5284 74.8128 24.4239 74.0689 23.8331C73.2994 23.2166 72.1965 23.3707 71.6065 24.1156L64.5014 33.1833C63.3728 33.1576 61.6285 32.9778 60.1921 32.387L70.2727 22.3175C70.9396 21.6239 70.9396 20.5194 70.2727 19.8258C69.5801 19.158 68.4772 19.158 67.7846 19.8258L57.704 29.921C57.1397 28.5082 56.9602 26.7614 56.9345 25.6055L66.143 18.5158C66.9125 17.925 67.0664 16.8204 66.4764 16.0498C65.8608 15.2792 64.7579 15.125 63.9884 15.7158L54.113 23.345C53.7282 23.6533 53.4718 24.1156 53.4461 24.6294C53.4205 25.1688 53.2409 29.4329 55.1134 32.5411L52.3175 35.3153L33.0798 15.8957C32.772 15.5617 32.3103 15.3562 31.8485 15.3562C31.3868 15.3562 30.9251 15.5617 30.5917 15.87L30.3352 16.1525C30.053 16.4351 29.8735 16.8204 29.8222 17.2314C29.788 17.7623 29.7709 18.3017 29.7709 18.8497C29.7965 24.7064 32.695 31.5393 38.3894 39.1941C42.5191 44.794 46.6231 48.6985 46.777 48.8783C47.1618 49.2122 47.6748 49.3921 48.1878 49.3407L51.6506 48.9554C52.6253 48.8269 53.3178 47.9792 53.2152 47.0031C53.087 46.027 52.2149 45.3334 51.2658 45.4619L48.6238 45.7444C45.9819 43.0986 35.1318 31.6164 33.4902 21.29L71.7604 59.9239C72.0939 60.2578 72.5556 60.4376 73.0173 60.4376C73.4533 60.4376 73.8894 60.2578 74.2485 59.9239C74.941 59.2303 74.941 58.1258 74.2485 57.4322Z" fill="white"/>
<path d="M28.3645 62.6205C27.9797 62.6205 27.6206 62.4664 27.3128 62.2095C20.2077 55.762 16.1293 46.5659 16.1293 36.9845C16.1293 18.2326 31.3399 3 50.0646 3C68.7893 3 84 18.2326 84 36.9845C84 45.076 80.5628 53.2703 74.3041 60.0261C73.7142 60.6682 72.7138 60.6939 72.0726 60.1031C71.457 59.5123 71.4057 58.5105 71.9956 57.8683C77.7156 51.7033 80.8706 44.2797 80.8706 36.9845C80.8706 19.9794 67.0451 6.13386 50.0646 6.13386C33.0841 6.13386 19.2586 19.9794 19.2586 36.9845C19.2586 45.6925 22.9779 54.0409 29.4161 59.8719C30.0574 60.4628 30.1087 61.4389 29.5187 62.0811C29.2109 62.4407 28.8005 62.6205 28.3645 62.6205Z" fill="white"/>
<path d="M15.6786 77.2976H11.073C11.0403 76.9179 10.9532 76.5734 10.8117 76.2642C10.6756 75.955 10.4851 75.6892 10.2401 75.4668C10.0005 75.239 9.70929 75.0654 9.36632 74.9461C9.02335 74.8213 8.63411 74.759 8.1986 74.759C7.43644 74.759 6.79133 74.9434 6.26327 75.3122C5.74065 75.6811 5.34324 76.21 5.07104 76.8989C4.80429 77.5878 4.67091 78.415 4.67091 79.3805C4.67091 80.4003 4.80701 81.2546 5.07921 81.9435C5.35685 82.627 5.75698 83.1423 6.2796 83.4895C6.80222 83.8312 7.431 84.0021 8.16593 84.0021C8.58512 84.0021 8.96075 83.9506 9.29283 83.8475C9.62491 83.739 9.91344 83.5844 10.1584 83.3837C10.4034 83.183 10.6021 82.9416 10.7545 82.6596C10.9124 82.3721 11.0186 82.0493 11.073 81.6913L15.6786 81.7239C15.6241 82.429 15.4254 83.1477 15.0825 83.88C14.7395 84.6069 14.2523 85.2795 13.6208 85.8979C12.9947 86.5109 12.219 87.0045 11.2935 87.3788C10.368 87.753 9.29283 87.9402 8.06794 87.9402C6.53274 87.9402 5.15542 87.612 3.93598 86.9557C2.72198 86.2993 1.76112 85.3338 1.05341 84.059C0.351135 82.7843 0 81.2248 0 79.3805C0 77.5254 0.359301 75.9632 1.0779 74.6939C1.7965 73.4191 2.76553 72.4563 3.98497 71.8054C5.20442 71.149 6.56541 70.8209 8.06794 70.8209C9.12407 70.8209 10.0958 70.9646 10.9832 71.2521C11.8705 71.5396 12.649 71.96 13.3186 72.5133C13.9882 73.0611 14.5272 73.7365 14.9355 74.5393C15.3438 75.3421 15.5915 76.2615 15.6786 77.2976Z" fill="white"/>
<path d="M22.3114 80.6824V87.7124H17.8038V71.0487H22.148V77.5905H22.2787C22.5618 76.7931 23.0327 76.172 23.6914 75.7272C24.3501 75.277 25.1422 75.0519 26.0677 75.0519C26.9551 75.0519 27.7254 75.2526 28.3787 75.654C29.0374 76.0554 29.5464 76.6087 29.9057 77.3138C30.2704 78.019 30.4501 78.8272 30.4446 79.7385V87.7124H25.937V80.6824C25.9425 80.064 25.7873 79.5785 25.4716 79.2259C25.1613 78.8733 24.7176 78.6971 24.1405 78.6971C23.7758 78.6971 23.4546 78.7784 23.177 78.9411C22.9048 79.0985 22.6924 79.3263 22.54 79.6246C22.393 79.9175 22.3168 80.2701 22.3114 80.6824Z" fill="white"/>
<path d="M38.68 87.9402C37.3408 87.9402 36.1866 87.6852 35.2176 87.1753C34.254 86.66 33.5109 85.9223 32.9883 84.9622C32.4711 83.9967 32.2126 82.8413 32.2126 81.496C32.2126 80.205 32.4739 79.0768 32.9965 78.1112C33.5191 77.1457 34.2568 76.3944 35.2095 75.8574C36.1621 75.3204 37.2863 75.0519 38.582 75.0519C39.5292 75.0519 40.3867 75.1983 41.1543 75.4912C41.9218 75.7842 42.5778 76.21 43.1222 76.7687C43.6666 77.322 44.0858 77.9946 44.3798 78.7866C44.6738 79.5785 44.8208 80.4708 44.8208 81.4635V82.505H33.6171V80.0314H40.6725C40.667 79.6734 40.5745 79.3588 40.3948 79.0876C40.2206 78.811 39.9838 78.5967 39.6844 78.4448C39.3904 78.2875 39.0556 78.2089 38.68 78.2089C38.3152 78.2089 37.9804 78.2875 37.6756 78.4448C37.3707 78.5967 37.1257 78.8083 36.9406 79.0795C36.761 79.3507 36.6657 79.668 36.6548 80.0314V82.7002C36.6548 83.1016 36.7392 83.4596 36.908 83.7743C37.0767 84.0889 37.319 84.3357 37.6347 84.5147C37.9505 84.6937 38.3316 84.7832 38.778 84.7832C39.0883 84.7832 39.3714 84.7398 39.6272 84.653C39.8885 84.5662 40.1117 84.4415 40.2968 84.2787C40.4819 84.1106 40.618 83.9099 40.7051 83.6766H44.8208C44.6792 84.5445 44.3444 85.2985 43.8163 85.9386C43.2883 86.5732 42.5887 87.0669 41.7177 87.4194C40.8521 87.7666 39.8395 87.9402 38.68 87.9402Z" fill="white"/>
<path d="M54.1728 75.2146V78.4692H45.7782V75.2146H54.1728ZM47.3787 87.7124V74.8566C47.3787 73.826 47.5638 72.9716 47.934 72.2936C48.3042 71.6155 48.8268 71.1084 49.5019 70.772C50.1769 70.4357 50.9717 70.2676 51.8863 70.2676C52.4579 70.2676 53.0132 70.311 53.5522 70.3978C54.0966 70.4846 54.4994 70.5605 54.7607 70.6256L54.1075 73.8477C53.9441 73.7988 53.7536 73.7609 53.5358 73.7338C53.3181 73.7012 53.1276 73.6849 52.9642 73.6849C52.5396 73.6849 52.2538 73.7744 52.1068 73.9534C51.9598 74.1324 51.8863 74.3684 51.8863 74.6613V87.7124H47.3787Z" fill="white"/>
<path d="M63.4248 75.2146V78.4692H55.0302V75.2146H63.4248ZM56.6307 87.7124V74.8566C56.6307 73.826 56.8158 72.9716 57.186 72.2936C57.5562 71.6155 58.0788 71.1084 58.7539 70.772C59.4289 70.4357 60.2237 70.2676 61.1383 70.2676C61.7099 70.2676 62.2652 70.311 62.8042 70.3978C63.3486 70.4846 63.7514 70.5605 64.0127 70.6256L63.3595 73.8477C63.1961 73.7988 63.0056 73.7609 62.7878 73.7338C62.5701 73.7012 62.3796 73.6849 62.2162 73.6849C61.7916 73.6849 61.5058 73.7744 61.3588 73.9534C61.2118 74.1324 61.1383 74.3684 61.1383 74.6613V87.7124H56.6307Z" fill="white"/>
<path d="M70.7925 87.9402C69.4533 87.9402 68.2992 87.6852 67.3301 87.1753C66.3666 86.66 65.6235 85.9223 65.1008 84.9622C64.5837 83.9967 64.3251 82.8413 64.3251 81.496C64.3251 80.205 64.5864 79.0768 65.109 78.1112C65.6316 77.1457 66.3693 76.3944 67.322 75.8574C68.2747 75.3204 69.3988 75.0519 70.6945 75.0519C71.6418 75.0519 72.4992 75.1983 73.2668 75.4912C74.0344 75.7842 74.6904 76.21 75.2348 76.7687C75.7792 77.322 76.1984 77.9946 76.4923 78.7866C76.7863 79.5785 76.9333 80.4708 76.9333 81.4635V82.505H65.7296V80.0314H72.785C72.7795 79.6734 72.687 79.3588 72.5073 79.0876C72.3331 78.811 72.0963 78.5967 71.7969 78.4448C71.5029 78.2875 71.1681 78.2089 70.7925 78.2089C70.4278 78.2089 70.093 78.2875 69.7881 78.4448C69.4832 78.5967 69.2383 78.8083 69.0532 79.0795C68.8735 79.3507 68.7782 79.668 68.7673 80.0314V82.7002C68.7673 83.1016 68.8517 83.4596 69.0205 83.7743C69.1893 84.0889 69.4315 84.3357 69.7473 84.5147C70.063 84.6937 70.4441 84.7832 70.8905 84.7832C71.2008 84.7832 71.4839 84.7398 71.7397 84.653C72.0011 84.5662 72.2243 84.4415 72.4094 84.2787C72.5944 84.1106 72.7305 83.9099 72.8177 83.6766H76.9333C76.7917 84.5445 76.4569 85.2985 75.9289 85.9386C75.4008 86.5732 74.7013 87.0669 73.8302 87.4194C72.9646 87.7666 71.9521 87.9402 70.7925 87.9402Z" fill="white"/>
<path d="M90.2376 79.2829H86.0893C86.0676 79.0279 85.9777 78.8083 85.8199 78.6238C85.662 78.4394 85.4578 78.2984 85.2074 78.2007C84.9624 78.0977 84.6902 78.0461 84.3908 78.0461C84.0043 78.0461 83.6722 78.1166 83.3946 78.2577C83.1169 78.3987 82.9808 78.5994 82.9863 78.8598C82.9808 79.0442 83.0598 79.2151 83.2231 79.3724C83.3918 79.5297 83.7158 79.6517 84.1948 79.7385L86.7426 80.1942C88.0274 80.4274 88.9828 80.8207 89.6088 81.374C90.2403 81.9218 90.5588 82.6568 90.5643 83.579C90.5588 84.4686 90.2921 85.2416 89.764 85.8979C89.2414 86.5488 88.5255 87.0533 87.6164 87.4113C86.7127 87.7639 85.681 87.9402 84.5215 87.9402C82.6052 87.9402 81.1054 87.5496 80.022 86.7685C78.9441 85.9874 78.3426 84.9568 78.2174 83.6766H82.6923C82.7522 84.0726 82.9482 84.3791 83.2802 84.5961C83.6178 84.8076 84.0424 84.9134 84.5541 84.9134C84.9679 84.9134 85.3081 84.8429 85.5749 84.7018C85.8471 84.5608 85.9859 84.3601 85.9913 84.0997C85.9859 83.8611 85.8661 83.6712 85.632 83.5302C85.4034 83.3891 85.0441 83.2752 84.5541 83.1884L82.333 82.7979C81.0537 82.5755 80.0955 82.1524 79.4586 81.5286C78.8217 80.9048 78.5059 80.102 78.5113 79.1202C78.5059 78.2523 78.7345 77.5173 79.1973 76.9151C79.6655 76.3076 80.3323 75.8465 81.1979 75.5319C82.069 75.2119 83.1006 75.0519 84.2928 75.0519C86.1057 75.0519 87.5347 75.4262 88.5799 76.1747C89.6306 76.9233 90.1832 77.9593 90.2376 79.2829Z" fill="white"/>
<path d="M99.7713 75.2146V78.4692H91.5074V75.2146H99.7713ZM93.108 72.2204H97.6155V83.6929C97.6155 83.8665 97.6455 84.0129 97.7054 84.1323C97.7652 84.2462 97.8578 84.333 97.983 84.3926C98.1082 84.4469 98.2688 84.474 98.4648 84.474C98.6009 84.474 98.7588 84.4577 98.9384 84.4252C99.1235 84.3926 99.2596 84.3655 99.3467 84.3438L100 87.5008C99.7986 87.5605 99.51 87.6337 99.1344 87.7205C98.7642 87.8073 98.3233 87.8642 97.8115 87.8914C96.7772 87.9456 95.9089 87.8398 95.2066 87.574C94.5043 87.3028 93.9763 86.877 93.6224 86.2966C93.2685 85.7162 93.0971 84.9893 93.108 84.116V72.2204Z" fill="white"/>
<path d="M50.4201 93.5505H2.7999C2.42207 93.5505 2.10022 93.2343 2.10022 92.8492C2.10022 92.4642 2.42207 92.1479 2.7999 92.1479H50.4201C50.812 92.1479 51.1198 92.4642 51.1198 92.8492C51.1198 93.2343 50.812 93.5505 50.4201 93.5505Z" fill="white"/>
<path d="M50.4212 96.9167H40.0571C39.6789 96.9167 39.3568 96.6035 39.3568 96.2086C39.3568 95.8274 39.6789 95.5142 40.0571 95.5142H50.4212C50.8134 95.5142 51.1215 95.8274 51.1215 96.2086C51.1215 96.6035 50.8134 96.9167 50.4212 96.9167Z" fill="white"/>
<path d="M53.0822 96.8516V92.4021H56.0584V93.1777H54.0325V94.238H55.8609V95.0136H54.0325V96.8516H53.0822Z" fill="white"/>
<path d="M57.5992 96.9146C57.3841 96.9146 57.1925 96.8776 57.0242 96.8038C56.8559 96.7285 56.7228 96.6177 56.6247 96.4714C56.5281 96.3236 56.4799 96.1397 56.4799 95.9195C56.4799 95.7341 56.5142 95.5784 56.583 95.4524C56.6518 95.3264 56.7454 95.225 56.864 95.1483C56.9825 95.0715 57.1171 95.0136 57.2678 94.9745C57.42 94.9354 57.5795 94.9078 57.7463 94.8919C57.9424 94.8716 58.1004 94.8528 58.2204 94.8354C58.3404 94.8166 58.4275 94.7891 58.4816 94.7529C58.5357 94.7167 58.5628 94.6631 58.5628 94.5921V94.5791C58.5628 94.4415 58.5189 94.335 58.4311 94.2597C58.3448 94.1844 58.2219 94.1467 58.0624 94.1467C57.8941 94.1467 57.7602 94.1836 57.6607 94.2575C57.5612 94.3299 57.4954 94.4212 57.4632 94.5313L56.5984 94.4617C56.6423 94.259 56.7286 94.0837 56.8574 93.936C56.9861 93.7868 57.1522 93.6724 57.3556 93.5927C57.5605 93.5116 57.7975 93.471 58.0668 93.471C58.2541 93.471 58.4333 93.4928 58.6045 93.5362C58.7772 93.5797 58.9301 93.647 59.0632 93.7383C59.1979 93.8295 59.304 93.9468 59.3815 94.0902C59.4591 94.2322 59.4978 94.4024 59.4978 94.6008V96.8516H58.6111V96.3888H58.5848C58.5306 96.4931 58.4582 96.5851 58.3675 96.6647C58.2767 96.7429 58.1677 96.8045 58.0404 96.8494C57.9131 96.8928 57.7661 96.9146 57.5992 96.9146ZM57.867 96.2758C58.0046 96.2758 58.126 96.249 58.2314 96.1955C58.3367 96.1404 58.4194 96.0665 58.4794 95.9738C58.5394 95.8812 58.5694 95.7761 58.5694 95.6588V95.3047C58.5401 95.3235 58.4999 95.3409 58.4487 95.3568C58.3989 95.3713 58.3426 95.3851 58.2797 95.3981C58.2167 95.4097 58.1538 95.4206 58.0909 95.4307C58.028 95.4394 57.9709 95.4474 57.9197 95.4546C57.81 95.4705 57.7141 95.4959 57.6322 95.5306C57.5502 95.5654 57.4866 95.6125 57.4412 95.6719C57.3959 95.7298 57.3732 95.8022 57.3732 95.8891C57.3732 96.0151 57.4193 96.1114 57.5115 96.1781C57.6051 96.2432 57.7236 96.2758 57.867 96.2758Z" fill="white"/>
<path d="M63.0283 94.4661L62.1723 94.5182C62.1577 94.4458 62.1262 94.3806 62.0779 94.3227C62.0296 94.2633 61.966 94.2162 61.887 94.1815C61.8094 94.1453 61.7165 94.1272 61.6082 94.1272C61.4634 94.1272 61.3412 94.1576 61.2417 94.2184C61.1422 94.2778 61.0924 94.3575 61.0924 94.4574C61.0924 94.5371 61.1246 94.6044 61.189 94.6594C61.2534 94.7145 61.3639 94.7587 61.5204 94.792L62.1306 94.9136C62.4584 94.9803 62.7027 95.0874 62.8637 95.2352C63.0247 95.3829 63.1051 95.577 63.1051 95.8174C63.1051 96.0361 63.04 96.228 62.9098 96.3932C62.781 96.5583 62.604 96.6872 62.3786 96.7799C62.1548 96.8711 61.8965 96.9167 61.6038 96.9167C61.1575 96.9167 60.802 96.8248 60.5371 96.6408C60.2737 96.4554 60.1194 96.2034 60.074 95.8848L60.9937 95.837C61.0215 95.9717 61.0888 96.0745 61.1956 96.1455C61.3024 96.215 61.4392 96.2498 61.606 96.2498C61.7699 96.2498 61.9016 96.2186 62.0011 96.1563C62.1021 96.0926 62.1533 96.0108 62.1548 95.9108C62.1533 95.8268 62.1174 95.758 62.0472 95.7045C61.977 95.6494 61.8687 95.6074 61.7224 95.5784L61.1385 95.4633C60.8093 95.3981 60.5642 95.2851 60.4032 95.1244C60.2437 94.9636 60.164 94.7587 60.164 94.5095C60.164 94.2952 60.2225 94.1105 60.3396 93.9555C60.4581 93.8006 60.6242 93.6811 60.8378 93.5971C61.0529 93.513 61.3046 93.471 61.5929 93.471C62.0187 93.471 62.3538 93.5601 62.5981 93.7383C62.844 93.9164 62.9874 94.159 63.0283 94.4661Z" fill="white"/>
<path d="M65.4872 93.5145V94.2097H63.4569V93.5145H65.4872ZM63.9178 92.715H64.8528V95.8261C64.8528 95.9116 64.866 95.9782 64.8923 96.026C64.9187 96.0723 64.9553 96.1049 65.0021 96.1238C65.0504 96.1426 65.106 96.152 65.1689 96.152C65.2128 96.152 65.2567 96.1484 65.3006 96.1411C65.3445 96.1324 65.3781 96.1259 65.4016 96.1216L65.5486 96.8103C65.5018 96.8248 65.4359 96.8414 65.3511 96.8603C65.2662 96.8805 65.163 96.8928 65.0416 96.8972C64.8162 96.9059 64.6187 96.8762 64.449 96.8081C64.2807 96.74 64.1497 96.6343 64.0561 96.4909C63.9624 96.3475 63.9163 96.1665 63.9178 95.9478V92.715Z" fill="white"/>
<path d="M69.3397 93.5145V94.2097H67.259V93.5145H69.3397ZM67.7353 96.8516V93.2733C67.7353 93.0315 67.7828 92.8309 67.8779 92.6715C67.9745 92.5122 68.1062 92.3927 68.273 92.3131C68.4398 92.2334 68.6293 92.1936 68.8415 92.1936C68.9849 92.1936 69.1159 92.2044 69.2344 92.2262C69.3544 92.2479 69.4436 92.2674 69.5022 92.2848L69.3354 92.98C69.2988 92.9685 69.2534 92.9576 69.1993 92.9475C69.1466 92.9373 69.0925 92.9322 69.0368 92.9322C68.8993 92.9322 68.8035 92.9641 68.7493 93.0278C68.6952 93.0901 68.6681 93.1777 68.6681 93.2907V96.8516H67.7353Z" fill="white"/>
<path d="M71.3135 96.9167C70.9726 96.9167 70.6777 96.8451 70.429 96.7017C70.1817 96.5568 69.9907 96.3555 69.8561 96.0977C69.7215 95.8384 69.6542 95.5379 69.6542 95.1961C69.6542 94.8514 69.7215 94.5501 69.8561 94.2923C69.9907 94.033 70.1817 93.8317 70.429 93.6883C70.6777 93.5435 70.9726 93.471 71.3135 93.471C71.6544 93.471 71.9486 93.5435 72.1959 93.6883C72.4446 93.8317 72.6363 94.033 72.7709 94.2923C72.9055 94.5501 72.9728 94.8514 72.9728 95.1961C72.9728 95.5379 72.9055 95.8384 72.7709 96.0977C72.6363 96.3555 72.4446 96.5568 72.1959 96.7017C71.9486 96.8451 71.6544 96.9167 71.3135 96.9167ZM71.3179 96.1998C71.473 96.1998 71.6025 96.1563 71.7064 96.0694C71.8103 95.9811 71.8886 95.8609 71.9412 95.7088C71.9954 95.5567 72.0225 95.3836 72.0225 95.1896C72.0225 94.9955 71.9954 94.8224 71.9412 94.6703C71.8886 94.5182 71.8103 94.398 71.7064 94.3097C71.6025 94.2213 71.473 94.1771 71.3179 94.1771C71.1613 94.1771 71.0296 94.2213 70.9228 94.3097C70.8175 94.398 70.7377 94.5182 70.6836 94.6703C70.6309 94.8224 70.6046 94.9955 70.6046 95.1896C70.6046 95.3836 70.6309 95.5567 70.6836 95.7088C70.7377 95.8609 70.8175 95.9811 70.9228 96.0694C71.0296 96.1563 71.1613 96.1998 71.3179 96.1998Z" fill="white"/>
<path d="M75.1041 96.9167C74.7631 96.9167 74.4683 96.8451 74.2195 96.7017C73.9723 96.5568 73.7813 96.3555 73.6467 96.0977C73.5121 95.8384 73.4447 95.5379 73.4447 95.1961C73.4447 94.8514 73.5121 94.5501 73.6467 94.2923C73.7813 94.033 73.9723 93.8317 74.2195 93.6883C74.4683 93.5435 74.7631 93.471 75.1041 93.471C75.445 93.471 75.7391 93.5435 75.9864 93.6883C76.2352 93.8317 76.4269 94.033 76.5615 94.2923C76.6961 94.5501 76.7634 94.8514 76.7634 95.1961C76.7634 95.5379 76.6961 95.8384 76.5615 96.0977C76.4269 96.3555 76.2352 96.5568 75.9864 96.7017C75.7391 96.8451 75.445 96.9167 75.1041 96.9167ZM75.1085 96.1998C75.2636 96.1998 75.3931 96.1563 75.497 96.0694C75.6009 95.9811 75.6791 95.8609 75.7318 95.7088C75.786 95.5567 75.813 95.3836 75.813 95.1896C75.813 94.9955 75.786 94.8224 75.7318 94.6703C75.6791 94.5182 75.6009 94.398 75.497 94.3097C75.3931 94.2213 75.2636 94.1771 75.1085 94.1771C74.9519 94.1771 74.8202 94.2213 74.7134 94.3097C74.608 94.398 74.5283 94.5182 74.4742 94.6703C74.4215 94.8224 74.3951 94.9955 74.3951 95.1896C74.3951 95.3836 74.4215 95.5567 74.4742 95.7088C74.5283 95.8609 74.608 95.9811 74.7134 96.0694C74.8202 96.1563 74.9519 96.1998 75.1085 96.1998Z" fill="white"/>
<path d="M78.6137 96.9059C78.3577 96.9059 78.1257 96.8407 77.9179 96.7104C77.7116 96.5785 77.5477 96.3852 77.4263 96.1303C77.3063 95.8739 77.2463 95.5596 77.2463 95.1874C77.2463 94.805 77.3085 94.4871 77.4329 94.2336C77.5572 93.9787 77.7226 93.7882 77.9289 93.6622C78.1367 93.5348 78.3642 93.471 78.6115 93.471C78.8003 93.471 78.9576 93.5029 79.0834 93.5666C79.2107 93.6289 79.3132 93.7071 79.3907 93.8013C79.4697 93.894 79.5297 93.9852 79.5707 94.075H79.5992V92.4021H80.5321V96.8516H79.6102V96.3171H79.5707C79.5268 96.4098 79.4646 96.5018 79.3841 96.593C79.3051 96.6828 79.202 96.7574 79.0747 96.8168C78.9488 96.8762 78.7952 96.9059 78.6137 96.9059ZM78.91 96.1694C79.0608 96.1694 79.1881 96.1288 79.2919 96.0477C79.3973 95.9652 79.4778 95.85 79.5334 95.7023C79.5905 95.5545 79.619 95.3815 79.619 95.183C79.619 94.9846 79.5912 94.8122 79.5356 94.666C79.48 94.5197 79.3995 94.4067 79.2941 94.327C79.1888 94.2474 79.0608 94.2075 78.91 94.2075C78.7564 94.2075 78.6269 94.2488 78.5215 94.3314C78.4162 94.4139 78.3364 94.5284 78.2823 94.6747C78.2282 94.8209 78.2011 94.9904 78.2011 95.183C78.2011 95.3771 78.2282 95.5487 78.2823 95.6979C78.3379 95.8457 78.4176 95.9615 78.5215 96.0455C78.6269 96.1281 78.7564 96.1694 78.91 96.1694Z" fill="white"/>
<path d="M84.1097 96.9167C83.7995 96.9167 83.5318 96.8617 83.3064 96.7516C83.0811 96.6416 82.9077 96.4924 82.7862 96.3041C82.6662 96.1143 82.6062 95.9029 82.6062 95.6697C82.6062 95.4959 82.6414 95.3416 82.7116 95.2069C82.7818 95.0722 82.8799 94.9484 83.0057 94.8354C83.1316 94.721 83.2779 94.6073 83.4447 94.4943L84.3161 93.9273C84.4287 93.8563 84.5114 93.7817 84.5641 93.7035C84.6168 93.6238 84.6431 93.5377 84.6431 93.445C84.6431 93.3566 84.6073 93.2748 84.5356 93.1995C84.4639 93.1242 84.3622 93.0872 84.2305 93.0887C84.1427 93.0887 84.0666 93.1082 84.0022 93.1473C83.9378 93.185 83.8873 93.235 83.8507 93.2972C83.8156 93.3581 83.7981 93.4261 83.7981 93.5015C83.7981 93.5942 83.8244 93.6883 83.8771 93.7839C83.9298 93.8795 84 93.9809 84.0878 94.0881C84.1756 94.1938 84.2714 94.3082 84.3753 94.4313L86.5066 96.8516H85.532L83.7542 94.8919C83.6371 94.7601 83.52 94.6225 83.403 94.4791C83.2874 94.3343 83.1908 94.1808 83.1133 94.0185C83.0357 93.8549 82.9969 93.6774 82.9969 93.4863C82.9969 93.2704 83.0474 93.0764 83.1484 92.904C83.2508 92.7316 83.3942 92.5955 83.5786 92.4956C83.763 92.3942 83.9781 92.3435 84.2239 92.3435C84.4639 92.3435 84.6709 92.392 84.845 92.489C85.0206 92.5846 85.1552 92.7121 85.2489 92.8714C85.344 93.0293 85.3916 93.2031 85.3916 93.3928C85.3916 93.6028 85.3389 93.7933 85.2335 93.9642C85.1296 94.1337 84.9833 94.2858 84.7946 94.4205L83.8771 95.0744C83.7527 95.1642 83.6605 95.2562 83.6005 95.3503C83.542 95.443 83.5127 95.5321 83.5127 95.6175C83.5127 95.7233 83.5391 95.8181 83.5917 95.9022C83.6444 95.9862 83.7191 96.0528 83.8156 96.102C83.9122 96.1498 84.0256 96.1737 84.1558 96.1737C84.3139 96.1737 84.4697 96.1382 84.6233 96.0673C84.7785 95.9949 84.9189 95.8927 85.0448 95.7609C85.1721 95.6277 85.2738 95.4698 85.3499 95.2873C85.4259 95.1048 85.464 94.9028 85.464 94.6812H86.2388C86.2388 94.9535 86.2088 95.199 86.1488 95.4177C86.0888 95.6349 86.0054 95.8247 85.8986 95.9869C85.7918 96.1477 85.6696 96.2795 85.532 96.3823C85.4881 96.4098 85.4457 96.4359 85.4047 96.4605C85.3638 96.4851 85.3213 96.5112 85.2774 96.5387C85.1106 96.672 84.924 96.7683 84.7177 96.8277C84.5129 96.8871 84.3102 96.9167 84.1097 96.9167Z" fill="white"/>
<path d="M91.3249 93.8404C91.2942 93.7347 91.251 93.6412 91.1954 93.5601C91.1398 93.4776 91.0718 93.408 90.9913 93.3516C90.9123 93.2936 90.8216 93.2494 90.7191 93.219C90.6182 93.1886 90.5062 93.1734 90.3833 93.1734C90.1536 93.1734 89.9516 93.2299 89.7775 93.3429C89.6048 93.4558 89.4702 93.6202 89.3736 93.836C89.2771 94.0504 89.2288 94.3126 89.2288 94.6225C89.2288 94.9325 89.2763 95.1961 89.3715 95.4133C89.4666 95.6306 89.6012 95.7964 89.7753 95.9108C89.9494 96.0238 90.155 96.0803 90.3921 96.0803C90.6072 96.0803 90.7908 96.0426 90.943 95.9673C91.0966 95.8906 91.2137 95.7827 91.2942 95.6436C91.3761 95.5046 91.4171 95.3402 91.4171 95.1504L91.6102 95.1787H90.4513V94.4704H92.3324V95.031C92.3324 95.422 92.249 95.758 92.0822 96.039C91.9153 96.3186 91.6856 96.5344 91.393 96.6865C91.1003 96.8371 90.7652 96.9124 90.3877 96.9124C89.9663 96.9124 89.5961 96.8204 89.2771 96.6365C88.9581 96.4511 88.7093 96.1882 88.5308 95.8478C88.3538 95.506 88.2652 95.1005 88.2652 94.6312C88.2652 94.2706 88.3179 93.949 88.4233 93.6666C88.5301 93.3827 88.6793 93.1423 88.871 92.9453C89.0627 92.7483 89.2859 92.5984 89.5405 92.4956C89.7951 92.3927 90.0709 92.3413 90.3679 92.3413C90.6225 92.3413 90.8596 92.3782 91.0791 92.4521C91.2986 92.5245 91.4932 92.6274 91.6629 92.7606C91.8341 92.8939 91.9739 93.0525 92.0822 93.2364C92.1904 93.4189 92.2599 93.6202 92.2907 93.8404H91.3249Z" fill="white"/>
<path d="M93.0287 96.8516V93.5145H93.9352V94.0967H93.9703C94.0318 93.8896 94.1349 93.7332 94.2798 93.6275C94.4247 93.5203 94.5915 93.4667 94.7802 93.4667C94.8271 93.4667 94.8775 93.4696 94.9317 93.4754C94.9858 93.4812 95.0334 93.4892 95.0743 93.4993V94.3205C95.0304 94.3075 94.9697 94.2959 94.8922 94.2858C94.8146 94.2756 94.7436 94.2706 94.6793 94.2706C94.5417 94.2706 94.4188 94.3002 94.3105 94.3596C94.2037 94.4176 94.1188 94.4987 94.0559 94.603C93.9945 94.7072 93.9637 94.8275 93.9637 94.9636V96.8516H93.0287Z" fill="white"/>
<path d="M95.5578 96.8516V93.5145H96.4928V96.8516H95.5578ZM96.0275 93.0843C95.8885 93.0843 95.7692 93.0387 95.6697 92.9475C95.5717 92.8548 95.5227 92.744 95.5227 92.6151C95.5227 92.4876 95.5717 92.3782 95.6697 92.287C95.7692 92.1943 95.8885 92.1479 96.0275 92.1479C96.1665 92.1479 96.285 92.1943 96.383 92.287C96.4826 92.3782 96.5323 92.4876 96.5323 92.6151C96.5323 92.744 96.4826 92.8548 96.383 92.9475C96.285 93.0387 96.1665 93.0843 96.0275 93.0843Z" fill="white"/>
<path d="M98.1768 92.4021V96.8516H97.2418V92.4021H98.1768Z" fill="white"/>
<path d="M99.8609 92.4021V96.8516H98.9258V92.4021H99.8609Z" fill="white"/>
</svg>
