<svg width="66" height="41" viewBox="0 0 66 41" fill="none" xmlns="http://www.w3.org/2000/svg">
<path fill-rule="evenodd" clip-rule="evenodd" d="M32.8553 35.5041C29.3754 38.5071 24.8613 40.32 19.9287 40.32C8.92236 40.32 0 31.2941 0 20.16C0 9.02594 8.92236 0 19.9287 0C24.8613 0 29.3754 1.81289 32.8553 4.81595C36.3353 1.81289 40.8494 0 45.782 0C56.7883 0 65.7107 9.02594 65.7107 20.16C65.7107 31.2941 56.7883 40.32 45.782 40.32C40.8494 40.32 36.3353 38.5071 32.8553 35.5041Z" fill="#ED0006"/>
<path fill-rule="evenodd" clip-rule="evenodd" d="M32.8553 35.5041C37.1403 31.8063 39.8573 26.3042 39.8573 20.16C39.8573 14.0158 37.1403 8.51366 32.8553 4.81595C36.3353 1.81289 40.8494 0 45.782 0C56.7883 0 65.7107 9.02594 65.7107 20.16C65.7107 31.2941 56.7883 40.32 45.782 40.32C40.8494 40.32 36.3353 38.5071 32.8553 35.5041Z" fill="#F9A000"/>
<path fill-rule="evenodd" clip-rule="evenodd" d="M32.8554 35.504C37.1403 31.8063 39.8573 26.3041 39.8573 20.16C39.8573 14.0159 37.1403 8.51376 32.8554 4.81604C28.5705 8.51376 25.8535 14.0159 25.8535 20.16C25.8535 26.3041 28.5705 31.8063 32.8554 35.504Z" fill="#FF5E00"/>
</svg>
