<svg width="33" height="34" viewBox="0 0 33 34" fill="none" xmlns="http://www.w3.org/2000/svg">
<path d="M27.5836 16.2915C27.5834 9.96339 22.4528 4.8335 16.1246 4.8335C9.79663 4.83367 4.6668 9.9635 4.66663 16.2915C4.66663 22.6197 9.79652 27.7503 16.1246 27.7505C22.4529 27.7505 27.5836 22.6198 27.5836 16.2915ZM31.5836 16.2915C31.5836 24.8289 24.662 31.7505 16.1246 31.7505C7.58738 31.7503 0.666626 24.8288 0.666626 16.2915C0.666802 7.75436 7.58749 0.833672 16.1246 0.833496C24.6619 0.833496 31.5834 7.75425 31.5836 16.2915Z" fill="white"/>
<path d="M26.7525 26.9193C27.5336 26.1382 28.7996 26.1382 29.5807 26.9193L32.4137 29.7523C33.1947 30.5333 33.1947 31.7994 32.4137 32.5804C31.6326 33.3615 30.3666 33.3615 29.5855 32.5804L26.7525 29.7474C25.9715 28.9664 25.9715 27.7003 26.7525 26.9193Z" fill="white"/>
</svg>
