<svg width="10" height="10" viewBox="0 0 10 10" fill="none" xmlns="http://www.w3.org/2000/svg">
<path d="M5.20672 8.44075L7.5711 9.9385C7.87335 10.1298 8.24835 9.84513 8.15872 9.49225L7.47585 6.80538C7.45656 6.73054 7.45878 6.65177 7.48227 6.57813C7.50575 6.5045 7.54954 6.43899 7.6086 6.38913L9.72885 4.62475C10.0071 4.393 9.86385 3.93063 9.50572 3.90738L6.7371 3.72738C6.66256 3.72209 6.59105 3.69574 6.5309 3.65139C6.47075 3.60704 6.42444 3.54652 6.39735 3.47688L5.3646 0.876628C5.33648 0.802731 5.28656 0.739126 5.22146 0.694247C5.15637 0.649368 5.07917 0.625336 5.0001 0.625336C4.92103 0.625336 4.84383 0.649368 4.77873 0.694247C4.71364 0.739126 4.66372 0.802731 4.6356 0.876628L3.60285 3.47688C3.57581 3.54659 3.52952 3.60719 3.46937 3.65161C3.40922 3.69603 3.33768 3.72243 3.2631 3.72775L0.494473 3.90775C0.136723 3.93063 -0.00727704 4.393 0.271348 4.62475L2.3916 6.3895C2.45059 6.43933 2.49434 6.50478 2.51782 6.57834C2.5413 6.6519 2.54356 6.73059 2.52435 6.80538L1.89135 9.29725C1.78372 9.72063 2.2341 10.0623 2.59635 9.83238L4.79385 8.44075C4.85561 8.40149 4.92728 8.38063 5.00047 8.38063C5.07366 8.38063 5.14533 8.40149 5.2071 8.44075H5.20672Z" fill="#CCCCCC"/>
</svg>
