<svg aria-hidden="true" style="position: absolute; width: 0; height: 0; overflow: hidden;" version="1.1" xmlns="http://www.w3.org/2000/svg" xmlns:xlink="http://www.w3.org/1999/xlink">
   <defs>
      <symbol id="icon-play-icon" viewBox="0 0 27 32">
         <path d="M0 0v32l26.667-16-26.667-16z"></path>
      </symbol>
      <symbol id="icon-card" viewBox="0 0 30 32">
         <path d="M21.731 32c1.358 0 2.46-1.148 2.46-2.564s-1.101-2.564-2.46-2.564c-1.358 0-2.46 1.148-2.46 2.564s1.101 2.564 2.46 2.564z"></path>
         <path d="M10.485 32c1.358 0 2.46-1.148 2.46-2.564s-1.101-2.564-2.46-2.564c-1.358 0-2.46 1.148-2.46 2.564s1.101 2.564 2.46 2.564z"></path>
         <path d="M5.692 4.804l-0.281 3.59c-0.056 0.689 0.464 1.26 1.124 1.26h21.519c0.59 0 1.082-0.469 1.124-1.084 0.183-2.594-1.715-4.704-4.203-4.704h-17.274c-0.141-0.645-0.422-1.26-0.857-1.773-0.703-0.777-1.687-1.231-2.699-1.231h-2.446c-0.576 0-1.054 0.498-1.054 1.099s0.478 1.099 1.054 1.099h2.446c0.436 0 0.843 0.191 1.139 0.513 0.295 0.337 0.436 0.777 0.408 1.231z"></path>
         <path d="M27.72 11.852h-21.561c-0.59 0-1.068 0.469-1.124 1.070l-0.506 6.374c-0.197 2.506 1.687 4.645 4.090 4.645h15.63c2.108 0 3.964-1.802 4.118-4l0.464-6.843c0.056-0.674-0.45-1.245-1.11-1.245z"></path>
      </symbol>
      <symbol id="icon-discord" viewBox="0 0 40 32">
         <path d="M33.862 3.486c-2.55-1.15-5.283-2-8.142-2.483-0.025-0.005-0.052-0.002-0.075 0.009s-0.043 0.029-0.056 0.051c-0.35 0.615-0.74 1.417-1.013 2.050-3.032-0.453-6.114-0.453-9.145 0-0.304-0.702-0.648-1.386-1.028-2.050-0.013-0.023-0.032-0.041-0.056-0.052s-0.050-0.015-0.076-0.011c-2.857 0.483-5.59 1.333-8.142 2.485-0.022 0.009-0.041 0.025-0.053 0.045-5.187 7.625-6.608 15.062-5.91 22.405 0.002 0.018 0.008 0.035 0.016 0.051s0.021 0.030 0.035 0.041c3.027 2.204 6.404 3.883 9.988 4.967 0.025 0.008 0.052 0.008 0.077 0s0.047-0.023 0.063-0.043c0.771-1.031 1.455-2.126 2.043-3.272 0.008-0.016 0.013-0.033 0.014-0.051s-0.002-0.035-0.008-0.052-0.016-0.031-0.029-0.044c-0.013-0.012-0.028-0.022-0.045-0.027-1.077-0.405-2.12-0.895-3.12-1.463-0.018-0.010-0.033-0.025-0.044-0.042s-0.017-0.038-0.019-0.058c-0.001-0.021 0.002-0.041 0.011-0.060s0.022-0.035 0.038-0.048c0.21-0.155 0.42-0.317 0.62-0.478 0.018-0.015 0.040-0.024 0.063-0.027s0.046 0.001 0.067 0.010c6.545 2.94 13.633 2.94 20.102 0 0.021-0.010 0.045-0.014 0.068-0.011s0.045 0.012 0.064 0.026c0.2 0.163 0.408 0.325 0.62 0.48 0.017 0.012 0.030 0.028 0.039 0.047s0.013 0.039 0.012 0.060c-0.001 0.021-0.007 0.041-0.018 0.058s-0.026 0.033-0.043 0.043c-0.997 0.573-2.033 1.058-3.122 1.462-0.017 0.006-0.032 0.016-0.045 0.028s-0.023 0.027-0.029 0.044c-0.006 0.017-0.009 0.034-0.008 0.052s0.006 0.035 0.014 0.051c0.6 1.145 1.287 2.235 2.042 3.27 0.016 0.021 0.037 0.037 0.063 0.045s0.052 0.009 0.077 0.001c3.591-1.081 6.973-2.76 10.003-4.968 0.015-0.010 0.027-0.024 0.036-0.039s0.015-0.033 0.017-0.051c0.833-8.49-1.397-15.867-5.915-22.403-0.011-0.021-0.029-0.038-0.052-0.047zM13.367 21.462c-1.97 0-3.595-1.782-3.595-3.967 0-2.187 1.593-3.967 3.595-3.967 2.017 0 3.627 1.795 3.595 3.967 0 2.187-1.593 3.967-3.595 3.967zM26.659 21.462c-1.972 0-3.595-1.782-3.595-3.967 0-2.187 1.592-3.967 3.595-3.967 2.017 0 3.627 1.795 3.595 3.967 0 2.187-1.577 3.967-3.595 3.967z"></path>
      </symbol>
      <symbol id="icon-facebook" viewBox="0 0 32 32">
         <path d="M0 16.089c0 7.955 5.777 14.569 13.333 15.911v-11.556h-4v-4.444h4v-3.556c0-4 2.577-6.221 6.223-6.221 1.155 0 2.4 0.177 3.555 0.355v4.089h-2.044c-1.956 0-2.4 0.977-2.4 2.223v3.111h4.267l-0.711 4.444h-3.556v11.556c7.556-1.341 13.333-7.955 13.333-15.911 0-8.849-7.2-16.089-16-16.089s-16 7.24-16 16.089z"></path>
      </symbol>
      <symbol id="icon-logo" viewBox="0 0 32 32">
         <path d="M12.828 15.197l-2.947 2.959c-0.222 0.222-0.222 0.575 0 0.797 0.107 0.107 0.254 0.164 0.394 0.164 0.148 0 0.287-0.058 0.402-0.164l2.947-2.959c0.222-0.222 0.222-0.575 0-0.797-0.222-0.214-0.575-0.214-0.796 0z"></path>
         <path d="M23.76 18.378l-6.222-6.28 0.886-0.896c0.796 0.477 1.814 0.543 2.29 0.543 0.115 0 0.197-0.008 0.238-0.008 0.156-0.008 0.304-0.090 0.41-0.214l2.43-3.107c0.197-0.247 0.148-0.6-0.090-0.789-0.246-0.197-0.599-0.148-0.788 0.090l-2.274 2.902c-0.361-0.008-0.919-0.066-1.379-0.255l3.226-3.222c0.213-0.222 0.213-0.575 0-0.797-0.222-0.214-0.575-0.214-0.796 0l-3.226 3.23c-0.181-0.452-0.238-1.011-0.246-1.381l2.947-2.269c0.246-0.189 0.296-0.543 0.107-0.789-0.197-0.247-0.55-0.296-0.796-0.107l-3.16 2.441c-0.123 0.099-0.205 0.247-0.213 0.411-0.008 0.173-0.066 1.537 0.534 2.532l-0.895 0.888-6.156-6.214c-0.098-0.107-0.246-0.173-0.394-0.173s-0.296 0.066-0.402 0.164l-0.082 0.090c-0.090 0.090-0.148 0.214-0.164 0.345-0.011 0.17-0.016 0.343-0.016 0.518 0.008 1.874 0.936 4.061 2.758 6.51 1.322 1.792 2.635 3.041 2.684 3.099 0.123 0.107 0.287 0.164 0.451 0.148l1.108-0.123c0.312-0.041 0.534-0.312 0.501-0.625-0.041-0.312-0.32-0.534-0.624-0.493l-0.845 0.090c-0.845-0.847-4.317-4.521-4.843-7.825l12.246 12.363c0.107 0.107 0.254 0.164 0.402 0.164 0.14 0 0.279-0.058 0.394-0.164 0.222-0.222 0.222-0.575 0-0.797z"></path>
         <path d="M9.077 20.039c-0.123 0-0.238-0.049-0.337-0.132-2.274-2.063-3.579-5.006-3.579-8.072 0-6.001 4.867-10.875 10.859-10.875s10.859 4.874 10.859 10.875c0 2.589-1.1 5.211-3.103 7.373-0.189 0.205-0.509 0.214-0.714 0.025-0.197-0.189-0.213-0.51-0.025-0.715 1.83-1.973 2.84-4.348 2.84-6.683 0-5.442-4.424-9.872-9.858-9.872s-9.858 4.431-9.858 9.872c0 2.787 1.19 5.458 3.25 7.324 0.205 0.189 0.222 0.501 0.033 0.707-0.098 0.115-0.23 0.173-0.369 0.173z"></path>
         <path d="M5.017 24.735h-1.474c-0.010-0.122-0.038-0.232-0.084-0.331-0.044-0.099-0.104-0.184-0.183-0.255-0.077-0.073-0.17-0.128-0.28-0.167-0.11-0.040-0.234-0.060-0.374-0.060-0.244 0-0.45 0.059-0.619 0.177-0.167 0.118-0.294 0.287-0.381 0.508-0.085 0.22-0.128 0.485-0.128 0.794 0 0.326 0.044 0.6 0.131 0.82 0.089 0.219 0.217 0.384 0.384 0.495 0.167 0.109 0.368 0.164 0.604 0.164 0.134 0 0.254-0.016 0.361-0.049 0.106-0.035 0.199-0.084 0.277-0.148s0.142-0.141 0.191-0.232c0.051-0.092 0.084-0.195 0.102-0.31l1.474 0.010c-0.017 0.226-0.081 0.456-0.191 0.69-0.11 0.233-0.266 0.448-0.468 0.646-0.2 0.196-0.449 0.354-0.745 0.474s-0.64 0.18-1.032 0.18c-0.491 0-0.932-0.105-1.322-0.315-0.388-0.21-0.696-0.519-0.922-0.927-0.225-0.408-0.337-0.907-0.337-1.497 0-0.594 0.115-1.094 0.345-1.5 0.23-0.408 0.54-0.716 0.93-0.924 0.39-0.21 0.826-0.315 1.307-0.315 0.338 0 0.649 0.046 0.933 0.138s0.533 0.227 0.747 0.404c0.214 0.175 0.387 0.391 0.517 0.648s0.21 0.551 0.238 0.883z"></path>
         <path d="M7.14 25.818v2.25h-1.442v-5.332h1.39v2.093h0.042c0.091-0.255 0.241-0.454 0.452-0.596 0.211-0.144 0.464-0.216 0.76-0.216 0.284 0 0.53 0.064 0.74 0.193 0.211 0.128 0.374 0.305 0.489 0.531 0.117 0.226 0.174 0.484 0.172 0.776v2.552h-1.442v-2.25c0.002-0.198-0.048-0.353-0.149-0.466-0.099-0.113-0.241-0.169-0.426-0.169-0.117 0-0.22 0.026-0.308 0.078-0.087 0.050-0.155 0.123-0.204 0.219-0.047 0.094-0.071 0.207-0.073 0.338z"></path>
         <path d="M12.378 28.141c-0.429 0-0.798-0.082-1.108-0.245-0.308-0.165-0.546-0.401-0.713-0.708-0.165-0.309-0.248-0.679-0.248-1.109 0-0.413 0.084-0.774 0.251-1.083s0.403-0.549 0.708-0.721c0.305-0.172 0.665-0.258 1.079-0.258 0.303 0 0.578 0.047 0.823 0.141s0.456 0.23 0.63 0.409c0.174 0.177 0.308 0.392 0.402 0.646s0.141 0.539 0.141 0.857v0.333h-3.585v-0.792h2.258c-0.002-0.115-0.031-0.215-0.089-0.302-0.056-0.088-0.132-0.157-0.227-0.206-0.094-0.050-0.201-0.076-0.321-0.076-0.117 0-0.224 0.025-0.321 0.076-0.098 0.049-0.176 0.116-0.235 0.203-0.057 0.087-0.088 0.188-0.091 0.305v0.854c0 0.128 0.027 0.243 0.081 0.344s0.132 0.18 0.233 0.237c0.101 0.057 0.223 0.086 0.366 0.086 0.099 0 0.19-0.014 0.272-0.042 0.084-0.028 0.155-0.068 0.214-0.12 0.059-0.054 0.103-0.118 0.131-0.193h1.317c-0.045 0.278-0.152 0.519-0.321 0.724-0.169 0.203-0.393 0.361-0.672 0.474-0.277 0.111-0.601 0.167-0.972 0.167z"></path>
         <path d="M17.335 24.069v1.041h-2.686v-1.041h2.686zM15.161 28.068v-4.114c0-0.33 0.059-0.603 0.178-0.82s0.286-0.379 0.502-0.487c0.216-0.108 0.47-0.161 0.763-0.161 0.183 0 0.361 0.014 0.533 0.042 0.174 0.028 0.303 0.052 0.387 0.073l-0.209 1.031c-0.052-0.016-0.113-0.028-0.183-0.036-0.070-0.010-0.131-0.016-0.183-0.016-0.136 0-0.227 0.029-0.274 0.086s-0.071 0.133-0.071 0.227v4.176h-1.442z"></path>
         <path d="M20.296 24.069v1.041h-2.686v-1.041h2.686zM18.122 28.068v-4.114c0-0.33 0.059-0.603 0.178-0.82s0.286-0.379 0.502-0.487c0.216-0.108 0.47-0.161 0.763-0.161 0.183 0 0.361 0.014 0.533 0.042 0.174 0.028 0.303 0.052 0.387 0.073l-0.209 1.031c-0.052-0.016-0.113-0.028-0.183-0.036-0.070-0.010-0.131-0.016-0.183-0.016-0.136 0-0.227 0.029-0.274 0.086s-0.071 0.133-0.071 0.227v4.176h-1.442z"></path>
         <path d="M22.654 28.141c-0.429 0-0.798-0.082-1.108-0.245-0.308-0.165-0.546-0.401-0.713-0.708-0.165-0.309-0.248-0.679-0.248-1.109 0-0.413 0.084-0.774 0.251-1.083s0.403-0.549 0.708-0.721 0.665-0.258 1.079-0.258c0.303 0 0.578 0.047 0.823 0.141s0.456 0.23 0.63 0.409c0.174 0.177 0.308 0.392 0.402 0.646s0.141 0.539 0.141 0.857v0.333h-3.585v-0.792h2.258c-0.002-0.115-0.031-0.215-0.089-0.302-0.056-0.088-0.132-0.157-0.227-0.206-0.094-0.050-0.201-0.076-0.321-0.076-0.117 0-0.224 0.025-0.321 0.076-0.098 0.049-0.176 0.116-0.235 0.203-0.058 0.087-0.088 0.188-0.091 0.305v0.854c0 0.128 0.027 0.243 0.081 0.344s0.132 0.18 0.233 0.237c0.101 0.057 0.223 0.086 0.366 0.086 0.099 0 0.19-0.014 0.272-0.042 0.084-0.028 0.155-0.068 0.214-0.12 0.059-0.054 0.103-0.118 0.131-0.193h1.317c-0.045 0.278-0.152 0.519-0.321 0.724-0.169 0.203-0.393 0.361-0.672 0.474-0.277 0.111-0.601 0.167-0.972 0.167z"></path>
         <path d="M28.876 25.371h-1.327c-0.007-0.082-0.036-0.152-0.086-0.211s-0.116-0.104-0.196-0.135c-0.078-0.033-0.166-0.049-0.261-0.049-0.124 0-0.23 0.023-0.319 0.068s-0.132 0.109-0.131 0.193c-0.002 0.059 0.024 0.114 0.076 0.164 0.054 0.050 0.158 0.089 0.311 0.117l0.815 0.146c0.411 0.075 0.717 0.2 0.917 0.378 0.202 0.175 0.304 0.41 0.306 0.706-0.002 0.285-0.087 0.532-0.256 0.742-0.167 0.208-0.396 0.37-0.687 0.484-0.289 0.113-0.619 0.169-0.99 0.169-0.613 0-1.093-0.125-1.44-0.375-0.345-0.25-0.537-0.58-0.577-0.989h1.432c0.019 0.127 0.082 0.225 0.188 0.294 0.108 0.068 0.244 0.102 0.408 0.102 0.132 0 0.241-0.023 0.327-0.068 0.087-0.045 0.132-0.109 0.133-0.193-0.002-0.076-0.040-0.137-0.115-0.182-0.073-0.045-0.188-0.082-0.345-0.109l-0.711-0.125c-0.409-0.071-0.716-0.207-0.92-0.406s-0.305-0.456-0.303-0.771c-0.002-0.278 0.071-0.513 0.22-0.706 0.15-0.194 0.363-0.342 0.64-0.443 0.279-0.102 0.609-0.154 0.99-0.154 0.58 0 1.037 0.12 1.372 0.359 0.336 0.24 0.513 0.571 0.53 0.995z"></path>
         <path d="M31.927 24.069v1.041h-2.644v-1.041h2.644zM29.795 23.111h1.442v3.671c0 0.056 0.010 0.102 0.029 0.141 0.019 0.036 0.049 0.064 0.089 0.083 0.040 0.017 0.091 0.026 0.154 0.026 0.044 0 0.094-0.005 0.152-0.016 0.059-0.010 0.103-0.019 0.131-0.026l0.209 1.010c-0.064 0.019-0.157 0.043-0.277 0.070-0.118 0.028-0.26 0.046-0.423 0.055-0.331 0.017-0.609-0.017-0.834-0.102-0.225-0.087-0.394-0.223-0.507-0.409s-0.168-0.418-0.165-0.698v-3.807z"></path>
         <path d="M16.134 29.936h-15.238c-0.121 0-0.224-0.101-0.224-0.224s0.103-0.224 0.224-0.224h15.238c0.125 0 0.224 0.101 0.224 0.224s-0.099 0.224-0.224 0.224z"></path>
         <path d="M16.135 31.013h-3.316c-0.121 0-0.224-0.1-0.224-0.227 0-0.122 0.103-0.222 0.224-0.222h3.316c0.125 0 0.224 0.1 0.224 0.222 0 0.126-0.099 0.227-0.224 0.227z"></path>
         <path d="M16.986 30.992v-1.424h0.952v0.248h-0.648v0.339h0.585v0.248h-0.585v0.588h-0.304z"></path>
         <path d="M18.432 31.013c-0.069 0-0.13-0.012-0.184-0.035s-0.096-0.060-0.128-0.106c-0.031-0.047-0.046-0.106-0.046-0.177 0-0.059 0.011-0.109 0.033-0.149s0.052-0.073 0.090-0.097c0.038-0.025 0.081-0.043 0.129-0.056s0.1-0.021 0.153-0.026c0.063-0.006 0.113-0.012 0.152-0.018s0.066-0.015 0.084-0.026 0.026-0.029 0.026-0.051v-0.004c0-0.044-0.014-0.078-0.042-0.102s-0.067-0.036-0.118-0.036c-0.054 0-0.097 0.012-0.129 0.035s-0.053 0.052-0.063 0.088l-0.277-0.022c0.014-0.065 0.042-0.121 0.083-0.168s0.094-0.084 0.159-0.11c0.066-0.026 0.141-0.039 0.228-0.039 0.060 0 0.117 0.007 0.172 0.021s0.104 0.035 0.147 0.065c0.043 0.029 0.077 0.067 0.102 0.113s0.037 0.1 0.037 0.163v0.72h-0.284v-0.148h-0.008c-0.017 0.033-0.041 0.063-0.070 0.088s-0.064 0.045-0.105 0.059c-0.041 0.014-0.088 0.021-0.141 0.021zM18.517 30.808c0.044 0 0.083-0.009 0.117-0.026s0.060-0.041 0.079-0.071c0.019-0.030 0.029-0.063 0.029-0.101v-0.113c-0.009 0.006-0.022 0.012-0.039 0.017s-0.034 0.009-0.054 0.013c-0.020 0.004-0.040 0.007-0.060 0.010s-0.038 0.005-0.055 0.008-0.066 0.013-0.092 0.024c-0.026 0.011-0.047 0.026-0.061 0.045s-0.022 0.042-0.022 0.070c0 0.040 0.015 0.071 0.044 0.092s0.068 0.031 0.114 0.031z"></path>
         <path d="M20.169 30.229l-0.274 0.017c-0.005-0.023-0.015-0.044-0.030-0.063s-0.036-0.034-0.061-0.045c-0.025-0.012-0.055-0.017-0.089-0.017-0.046 0-0.085 0.010-0.117 0.029s-0.048 0.044-0.048 0.076c0 0.026 0.010 0.047 0.031 0.065s0.056 0.032 0.106 0.042l0.195 0.039c0.105 0.021 0.183 0.056 0.235 0.103s0.077 0.109 0.077 0.186c0 0.070-0.021 0.131-0.063 0.184s-0.098 0.094-0.17 0.124c-0.072 0.029-0.154 0.044-0.248 0.044-0.143 0-0.257-0.029-0.341-0.088s-0.134-0.14-0.148-0.242l0.294-0.015c0.009 0.043 0.030 0.076 0.065 0.099s0.078 0.033 0.131 0.033c0.052 0 0.095-0.010 0.126-0.030s0.049-0.047 0.049-0.079c-0-0.027-0.012-0.049-0.034-0.066s-0.057-0.031-0.104-0.040l-0.187-0.037c-0.105-0.021-0.184-0.057-0.235-0.108s-0.077-0.117-0.077-0.197c0-0.069 0.019-0.128 0.056-0.177s0.091-0.088 0.159-0.115c0.069-0.027 0.149-0.040 0.242-0.040 0.136 0 0.244 0.029 0.322 0.086s0.125 0.135 0.138 0.233z"></path>
         <path d="M20.956 29.925v0.222h-0.65v-0.222h0.65zM20.454 29.669h0.299v0.996c0 0.027 0.004 0.049 0.013 0.064s0.020 0.025 0.035 0.031c0.015 0.006 0.033 0.009 0.053 0.009 0.014 0 0.028-0.001 0.042-0.003s0.025-0.005 0.032-0.006l0.047 0.22c-0.015 0.005-0.036 0.010-0.063 0.016s-0.060 0.010-0.099 0.012c-0.072 0.003-0.135-0.007-0.19-0.029s-0.096-0.056-0.126-0.102c-0.030-0.046-0.045-0.104-0.044-0.174v-1.035z"></path>
         <path d="M22.189 29.925v0.222h-0.666v-0.222h0.666zM21.675 30.992v-1.145c0-0.077 0.015-0.142 0.046-0.193s0.073-0.089 0.126-0.115c0.053-0.026 0.114-0.038 0.182-0.038 0.046 0 0.088 0.003 0.126 0.010s0.067 0.013 0.086 0.019l-0.053 0.222c-0.012-0.004-0.026-0.007-0.044-0.010s-0.034-0.005-0.052-0.005c-0.044 0-0.075 0.010-0.092 0.031s-0.026 0.048-0.026 0.084v1.14h-0.299z"></path>
         <path d="M22.82 31.013c-0.109 0-0.203-0.023-0.283-0.069s-0.14-0.111-0.183-0.193c-0.043-0.083-0.065-0.179-0.065-0.288s0.022-0.207 0.065-0.289c0.043-0.083 0.104-0.147 0.183-0.193s0.174-0.070 0.283-0.070 0.203 0.023 0.282 0.070c0.080 0.046 0.141 0.11 0.184 0.193s0.065 0.179 0.065 0.289c0 0.109-0.022 0.206-0.065 0.288s-0.104 0.147-0.184 0.193c-0.079 0.046-0.173 0.069-0.282 0.069zM22.822 30.784c0.050 0 0.091-0.014 0.124-0.042s0.058-0.067 0.075-0.115c0.017-0.049 0.026-0.104 0.026-0.166s-0.009-0.117-0.026-0.166c-0.017-0.049-0.042-0.087-0.075-0.115s-0.075-0.042-0.124-0.042c-0.050 0-0.092 0.014-0.126 0.042s-0.059 0.067-0.077 0.115c-0.017 0.049-0.025 0.104-0.025 0.166s0.008 0.117 0.025 0.166c0.017 0.049 0.043 0.087 0.077 0.115s0.076 0.042 0.126 0.042z"></path>
         <path d="M24.033 31.013c-0.109 0-0.203-0.023-0.283-0.069s-0.14-0.111-0.183-0.193c-0.043-0.083-0.065-0.179-0.065-0.288s0.022-0.207 0.065-0.289c0.043-0.083 0.104-0.147 0.183-0.193s0.174-0.070 0.283-0.070c0.109 0 0.203 0.023 0.282 0.070s0.141 0.11 0.184 0.193c0.043 0.082 0.065 0.179 0.065 0.289s-0.022 0.206-0.065 0.288c-0.043 0.082-0.104 0.147-0.184 0.193s-0.173 0.069-0.282 0.069zM24.035 30.784c0.050 0 0.091-0.014 0.124-0.042s0.058-0.067 0.075-0.115c0.017-0.049 0.026-0.104 0.026-0.166s-0.009-0.117-0.026-0.166c-0.017-0.049-0.042-0.087-0.075-0.115s-0.075-0.042-0.124-0.042c-0.050 0-0.092 0.014-0.126 0.042s-0.059 0.067-0.077 0.115c-0.017 0.049-0.025 0.104-0.025 0.166s0.008 0.117 0.025 0.166c0.017 0.049 0.043 0.087 0.077 0.115s0.076 0.042 0.126 0.042z"></path>
         <path d="M25.156 31.010c-0.082 0-0.156-0.021-0.223-0.063s-0.118-0.104-0.157-0.186c-0.038-0.082-0.058-0.183-0.058-0.302 0-0.122 0.020-0.224 0.060-0.305s0.093-0.143 0.159-0.183c0.067-0.041 0.139-0.061 0.218-0.061 0.060 0 0.111 0.010 0.151 0.031s0.074 0.045 0.098 0.075c0.025 0.030 0.044 0.059 0.058 0.088h0.009v-0.535h0.299v1.424h-0.295v-0.171h-0.013c-0.014 0.030-0.034 0.059-0.060 0.088s-0.058 0.053-0.099 0.072c-0.040 0.019-0.089 0.029-0.148 0.029zM25.251 30.774c0.048 0 0.089-0.013 0.122-0.039s0.059-0.063 0.077-0.111c0.018-0.047 0.027-0.103 0.027-0.166s-0.009-0.119-0.027-0.165c-0.018-0.047-0.044-0.083-0.077-0.108s-0.075-0.038-0.123-0.038c-0.049 0-0.091 0.013-0.124 0.040s-0.059 0.063-0.077 0.11c-0.017 0.047-0.026 0.101-0.026 0.163s0.009 0.117 0.026 0.165c0.018 0.047 0.043 0.084 0.077 0.111s0.075 0.040 0.124 0.040z"></path>
         <path d="M26.915 31.013c-0.099 0-0.185-0.018-0.257-0.053s-0.128-0.083-0.166-0.143c-0.038-0.061-0.058-0.128-0.058-0.203 0-0.056 0.011-0.105 0.034-0.148s0.054-0.083 0.094-0.119c0.040-0.037 0.087-0.073 0.14-0.109l0.279-0.181c0.036-0.023 0.063-0.047 0.079-0.072s0.025-0.053 0.025-0.083c0-0.028-0.011-0.054-0.034-0.079s-0.055-0.036-0.098-0.035c-0.028 0-0.052 0.006-0.073 0.019s-0.037 0.028-0.048 0.048c-0.011 0.020-0.017 0.041-0.017 0.065 0 0.030 0.008 0.060 0.025 0.090s0.039 0.063 0.067 0.097c0.028 0.034 0.059 0.070 0.092 0.11l0.682 0.774h-0.312l-0.569-0.627c-0.037-0.042-0.075-0.086-0.112-0.132s-0.068-0.095-0.093-0.147c-0.025-0.052-0.037-0.109-0.037-0.17 0-0.069 0.016-0.131 0.048-0.186s0.079-0.099 0.138-0.131c0.059-0.032 0.128-0.049 0.206-0.049 0.077 0 0.143 0.016 0.199 0.047s0.099 0.071 0.129 0.122c0.030 0.051 0.046 0.106 0.046 0.167 0 0.067-0.017 0.128-0.051 0.183s-0.080 0.103-0.14 0.146l-0.294 0.209c-0.040 0.029-0.069 0.058-0.088 0.088s-0.028 0.058-0.028 0.085c0 0.034 0.008 0.064 0.025 0.091s0.041 0.048 0.072 0.064c0.031 0.015 0.067 0.023 0.109 0.023 0.051 0 0.1-0.011 0.15-0.034s0.095-0.056 0.135-0.098c0.041-0.043 0.073-0.093 0.098-0.152s0.037-0.123 0.037-0.194h0.248c0 0.087-0.010 0.166-0.029 0.236s-0.046 0.13-0.080 0.182c-0.034 0.051-0.073 0.094-0.117 0.127-0.014 0.009-0.028 0.017-0.041 0.025s-0.027 0.016-0.041 0.025c-0.053 0.043-0.113 0.073-0.179 0.092s-0.13 0.028-0.195 0.028z"></path>
         <path d="M29.224 30.029c-0.010-0.034-0.024-0.064-0.041-0.090s-0.040-0.049-0.065-0.067c-0.025-0.019-0.054-0.033-0.087-0.042s-0.068-0.015-0.107-0.015c-0.073 0-0.138 0.018-0.194 0.054s-0.098 0.089-0.129 0.158c-0.031 0.069-0.046 0.152-0.046 0.252s0.015 0.184 0.046 0.253c0.030 0.070 0.073 0.123 0.129 0.159s0.122 0.054 0.197 0.054c0.069 0 0.128-0.012 0.176-0.036s0.087-0.059 0.112-0.104c0.026-0.044 0.039-0.097 0.039-0.158l0.062 0.009h-0.371v-0.227h0.602v0.179c0 0.125-0.027 0.233-0.080 0.323s-0.127 0.159-0.221 0.207c-0.094 0.048-0.201 0.072-0.322 0.072-0.135 0-0.253-0.029-0.355-0.088s-0.182-0.143-0.239-0.252c-0.057-0.109-0.085-0.239-0.085-0.389 0-0.115 0.017-0.218 0.051-0.309s0.082-0.168 0.143-0.231 0.133-0.111 0.214-0.144c0.081-0.033 0.17-0.049 0.265-0.049 0.081 0 0.157 0.012 0.228 0.035s0.133 0.056 0.187 0.099c0.055 0.043 0.1 0.093 0.134 0.152s0.057 0.123 0.067 0.193h-0.309z"></path>
         <path d="M29.769 30.992v-1.068h0.29v0.186h0.011c0.020-0.066 0.053-0.116 0.099-0.15s0.1-0.051 0.16-0.051c0.015 0 0.031 0.001 0.048 0.003s0.033 0.004 0.046 0.008v0.263c-0.014-0.004-0.033-0.008-0.058-0.011s-0.048-0.005-0.068-0.005c-0.044 0-0.083 0.009-0.118 0.028s-0.061 0.044-0.081 0.078c-0.020 0.033-0.029 0.072-0.029 0.115v0.604h-0.299z"></path>
         <path d="M30.578 30.992v-1.068h0.299v1.068h-0.299zM30.729 29.787c-0.044 0-0.083-0.015-0.114-0.044s-0.047-0.065-0.047-0.106c0-0.041 0.016-0.076 0.047-0.105s0.070-0.044 0.114-0.044 0.082 0.015 0.114 0.044c0.032 0.029 0.048 0.064 0.048 0.105s-0.016 0.077-0.048 0.106c-0.031 0.029-0.069 0.044-0.114 0.044z"></path>
         <path d="M31.417 29.569v1.424h-0.299v-1.424h0.299z"></path>
         <path d="M31.956 29.569v1.424h-0.299v-1.424h0.299z"></path>
      </symbol>
      <symbol id="icon-quotes" viewBox="0 0 40 32">
         <path d="M37.077 0l3.344 5.978c-8.026 1.407-8.546 8.088-7.803 11.253h7.060v14.769h-15.606c-0.372-1.876-0.892-8.018 0-17.582s9.042-13.597 13.005-14.418z"></path>
         <path d="M13.498 0l3.344 5.978c-8.026 1.407-8.546 8.088-7.803 11.253h7.060v14.769h-15.607c-0.372-1.876-0.892-8.018 0-17.582s9.042-13.597 13.005-14.418z"></path>
      </symbol>
      <symbol id="icon-search" viewBox="0 0 31 32">
         <path d="M25.961 15.333c-0-5.956-4.829-10.784-10.785-10.784s-10.784 4.828-10.784 10.784c0 5.956 4.828 10.785 10.784 10.785s10.785-4.829 10.785-10.785zM29.726 15.333c0 8.035-6.514 14.55-14.55 14.55s-14.549-6.515-14.549-14.55c0-8.035 6.514-14.549 14.549-14.549s14.549 6.514 14.55 14.549z"></path>
         <path d="M25.179 25.336c0.735-0.735 1.927-0.735 2.662 0l2.666 2.666c0.735 0.735 0.735 1.927 0 2.662s-1.927 0.735-2.662 0l-2.666-2.666c-0.735-0.735-0.735-1.927 0-2.662z"></path>
      </symbol>
      <symbol id="icon-shopping-cart" viewBox="0 0 32 32">
         <path stroke-linejoin="round" stroke-linecap="round" stroke-miterlimit="10" stroke-width="2.4" d="M2.667 2.667h2.32c1.44 0 2.573 1.24 2.453 2.667l-1.107 13.28c-0.187 2.173 1.533 4.040 3.72 4.040h14.2c1.92 0 3.6-1.573 3.747-3.48l0.72-10c0.16-2.213-1.52-4.013-3.747-4.013h-17.213"></path>
         <path stroke-linejoin="round" stroke-linecap="round" stroke-miterlimit="10" stroke-width="2.4" d="M21.667 29.333c0.92 0 1.667-0.746 1.667-1.667s-0.746-1.667-1.667-1.667c-0.92 0-1.667 0.746-1.667 1.667s0.746 1.667 1.667 1.667z"></path>
         <path stroke-linejoin="round" stroke-linecap="round" stroke-miterlimit="10" stroke-width="2.4" d="M11 29.333c0.92 0 1.667-0.746 1.667-1.667s-0.746-1.667-1.667-1.667c-0.92 0-1.667 0.746-1.667 1.667s0.746 1.667 1.667 1.667z"></path>
         <path stroke-linejoin="round" stroke-linecap="round" stroke-miterlimit="10" stroke-width="2.4" d="M12 10.667h16"></path>
      </symbol>
      <symbol id="icon-twitter" viewBox="0 0 39 32">
         <path d="M38.072 4.227c-1.392 0.617-2.887 1.033-4.458 1.222 1.622-0.97 2.835-2.498 3.413-4.297-1.524 0.905-3.191 1.542-4.93 1.883-1.169-1.249-2.718-2.076-4.406-2.354s-3.42 0.009-4.928 0.816-2.707 2.090-3.412 3.649c-0.704 1.559-0.874 3.307-0.484 4.972-3.087-0.155-6.107-0.957-8.864-2.355s-5.189-3.36-7.139-5.758c-0.667 1.15-1.050 2.483-1.050 3.903-0.001 1.278 0.314 2.537 0.916 3.665s1.474 2.089 2.537 2.799c-1.233-0.039-2.439-0.372-3.517-0.972v0.1c-0 1.793 0.62 3.531 1.755 4.918s2.716 2.34 4.473 2.695c-1.144 0.309-2.343 0.355-3.507 0.133 0.496 1.543 1.462 2.892 2.762 3.858s2.871 1.502 4.491 1.532c-2.75 2.159-6.147 3.33-9.643 3.325-0.619 0-1.238-0.036-1.853-0.108 3.549 2.282 7.681 3.493 11.9 3.488 14.283 0 22.092-11.83 22.092-22.090 0-0.333-0.008-0.67-0.023-1.003 1.519-1.098 2.83-2.458 3.872-4.017l0.003-0.005z"></path>
      </symbol>
      <symbol id="icon-linkeldn" viewBox="0 0 33 32">
         <path d="M0.316 3.898c0-1.052 0.369-1.919 1.108-2.603s1.699-1.025 2.88-1.025c1.161 0 2.1 0.336 2.817 1.010 0.739 0.694 1.108 1.598 1.108 2.713 0 1.009-0.359 1.851-1.076 2.524-0.739 0.694-1.709 1.041-2.912 1.041h-0.032c-1.161 0-2.1-0.347-2.817-1.041s-1.076-1.567-1.076-2.618zM0.728 31.501v-21.073h7.027v21.073h-7.027zM11.648 31.501h7.027v-11.767c0-0.736 0.084-1.304 0.253-1.703 0.296-0.715 0.744-1.32 1.345-1.814s1.356-0.741 2.263-0.741c2.363 0 3.545 1.588 3.545 4.763v11.262h7.027v-12.082c0-3.113-0.739-5.473-2.216-7.082s-3.429-2.413-5.856-2.413c-2.722 0-4.843 1.167-6.362 3.502v0.063h-0.032l0.032-0.063v-2.997h-7.027c0.042 0.673 0.063 2.765 0.063 6.278s-0.021 8.444-0.063 14.795z"></path>
      </symbol>
      <symbol id="icon-star-active" viewBox="0 0 32 32">
         <path d="M16.662 27.010l7.566 4.793c0.967 0.612 2.167-0.299 1.88-1.428l-2.185-8.598c-0.062-0.239-0.055-0.492 0.021-0.727s0.215-0.445 0.404-0.605l6.785-5.646c0.89-0.742 0.432-2.221-0.714-2.296l-8.86-0.576c-0.239-0.017-0.467-0.101-0.66-0.243s-0.341-0.336-0.427-0.558l-3.305-8.321c-0.090-0.236-0.25-0.44-0.458-0.584s-0.455-0.22-0.708-0.22-0.5 0.077-0.708 0.22c-0.208 0.144-0.368 0.347-0.458 0.584l-3.305 8.321c-0.087 0.223-0.235 0.417-0.427 0.559s-0.421 0.227-0.66 0.244l-8.86 0.576c-1.145 0.073-1.606 1.553-0.714 2.294l6.785 5.647c0.189 0.159 0.329 0.369 0.404 0.604s0.082 0.487 0.021 0.727l-2.026 7.974c-0.344 1.355 1.097 2.448 2.256 1.712l7.032-4.453c0.198-0.126 0.427-0.192 0.661-0.192s0.464 0.067 0.661 0.192h-0.001z"></path>
      </symbol>
      <symbol id="icon-star-inactive" viewBox="0 0 32 32">
         <path fill="#ccc" style="fill: var(--color1, #ccc)" d="M16.662 27.010l7.566 4.793c0.967 0.612 2.167-0.299 1.88-1.428l-2.185-8.598c-0.062-0.239-0.055-0.492 0.021-0.727s0.215-0.445 0.404-0.605l6.785-5.646c0.89-0.742 0.432-2.221-0.714-2.296l-8.86-0.576c-0.239-0.017-0.467-0.101-0.66-0.243s-0.341-0.336-0.427-0.558l-3.305-8.321c-0.090-0.236-0.25-0.44-0.458-0.584s-0.455-0.22-0.708-0.22-0.5 0.077-0.708 0.22c-0.208 0.144-0.368 0.347-0.458 0.584l-3.305 8.321c-0.087 0.223-0.235 0.417-0.427 0.559s-0.421 0.227-0.66 0.244l-8.86 0.576c-1.145 0.073-1.606 1.553-0.714 2.294l6.785 5.647c0.189 0.159 0.329 0.369 0.404 0.604s0.082 0.487 0.021 0.727l-2.026 7.974c-0.344 1.355 1.097 2.448 2.256 1.712l7.032-4.453c0.198-0.126 0.427-0.192 0.661-0.192s0.464 0.067 0.661 0.192h-0.001z"></path>
      </symbol>
   </defs>
</svg>
