<svg width="116" height="37" viewBox="0 0 116 37" fill="none" xmlns="http://www.w3.org/2000/svg">
<path fill-rule="evenodd" clip-rule="evenodd" d="M29.4446 36.3943H19.498L12.0394 7.93899C11.6853 6.63004 10.9336 5.47286 9.82794 4.92747C7.06852 3.55687 4.02782 2.46608 0.710693 1.91595V0.820419H16.7338C18.9452 0.820419 20.6037 2.46608 20.8802 4.37733L24.7502 24.9031L34.6918 0.820419H44.3619L29.4446 36.3943ZM49.8905 36.3943H40.4968L48.2319 0.820419H57.6256L49.8905 36.3943ZM69.7787 10.6755C70.0551 8.75949 71.7137 7.66396 73.6487 7.66396C76.6894 7.38889 80.0017 7.93903 82.7659 9.30488L84.4245 1.64566C81.6602 0.550136 78.6195 0 75.8601 0C66.7429 0 60.1086 4.92751 60.1086 11.7663C60.1086 16.9688 64.8079 19.7006 68.125 21.3462C71.7137 22.9871 73.0958 24.0827 72.8194 25.7236C72.8194 28.185 70.0551 29.2805 67.2957 29.2805C63.9786 29.2805 60.6615 28.46 57.6256 27.0894L55.9671 34.7534C59.2842 36.1193 62.8729 36.6694 66.19 36.6694C76.413 36.9397 82.7659 32.017 82.7659 24.6281C82.7659 15.3232 69.7787 14.7778 69.7787 10.6755ZM115.641 36.3943L108.183 0.820419H100.171C98.5126 0.820419 96.854 1.91595 96.3012 3.55687L82.4895 36.3943H92.1596L94.0897 31.1964H105.971L107.077 36.3943H115.641ZM101.553 10.4003L104.313 23.8075H96.5776L101.553 10.4003Z" fill="#172B85"/>
</svg>
